<svg xmlns="http://www.w3.org/2000/svg" viewBox="0 0 96 96" fill="none">
  <defs>
    <linearGradient id="bg" x1="10" y1="8" x2="86" y2="90" gradientUnits="userSpaceOnUse">
      <stop stop-color="#14B8A6"/>
      <stop offset="0.5" stop-color="#06B6D4"/>
      <stop offset="1" stop-color="#F59E0B"/>
    </linearGradient>
    <linearGradient id="stroke" x1="24" y1="22" x2="68" y2="74" gradientUnits="userSpaceOnUse">
      <stop stop-color="#FEF3C7"/>
      <stop offset="1" stop-color="#FFFFFF"/>
    </linearGradient>
  </defs>
  <rect x="8" y="8" width="80" height="80" rx="22" fill="url(#bg)"/>
  <path d="M27 70V26H47C58 26 65 32 65 42C65 52 58 58 47 58H39V70H27ZM39 48H46C51 48 54 46 54 42C54 38 51 36 46 36H39V48Z" fill="#0B1220"/>
  <path d="M27 70V26H47C58 26 65 32 65 42C65 52 58 58 47 58H39V70H27Z" stroke="url(#stroke)" stroke-width="2" stroke-opacity=".28"/>
</svg>
